Coordinates
version=1
nRows=19
nColumns=30
inDegrees=yes

Units are S.I. units (second, meters, Newtons, ...)
Angles are in degrees.

endheader
time	floatyaw	floatroll	floatpitch	floatx	floaty	floatz	pro_sup_l	deviation_l	flexion_l	cmc_flexion_l	cmc_abduction_l	mp_flexion_l	ip_flexion_l	2mcp_flexion_l	2mcp_abduction_l	2pm_flexion_l	2md_flexion_l	3mcp_flexion_l	3mcp_abduction_l	3pm_flexion_l	3md_flexion_l	4mcp_flexion_l	4mcp_abduction_l	4pm_flexion_l	4md_flexion_l	5mcp_flexion_l	5mcp_abduction_l	5pm_flexion_l	5md_flexion_l
-0.495000	-160.147433	-5.066637	-73.570646	0.081407	-0.181122	-0.017545	101.813919	5.809798	-0.393479	13.585599	11.688957	-25.873874	-41.763101	29.775088	6.762980	43.742171	29.839343	24.615625	4.247007	44.573710	29.611641	13.483778	-4.118583	52.247328	36.094074	0.831579	-8.616153	62.142286	43.460448
-0.485000	-160.147433	-5.066637	-73.570646	0.081193	-0.180921	-0.017716	101.784944	5.896489	-0.498016	13.538216	11.754904	-25.898404	-41.777906	29.792827	6.756271	43.713025	29.807891	24.621694	4.248365	44.536148	29.583415	13.537566	-4.125229	52.193029	36.067439	0.851828	-8.603585	62.106855	43.445569
-0.475000	-160.147433	-5.066637	-73.570646	0.080944	-0.180681	-0.017889	101.758276	5.985337	-0.630948	13.491495	11.853157	-25.911265	-41.785714	29.818824	6.744100	43.685200	29.775609	24.622577	4.247042	44.500351	29.557960	13.610840	-4.130545	52.116634	36.034638	0.877813	-8.585820	62.052058	43.424198
-0.465000	-160.147433	-5.066637	-73.570646	0.080658	-0.180401	-0.018061	101.748344	6.076616	-0.788990	13.457773	11.981821	-25.905973	-41.786369	29.850695	6.729390	43.666002	29.749403	24.615986	4.243574	44.488325	29.548877	13.686964	-4.132711	52.045442	36.008875	0.912524	-8.565259	61.996532	43.403702
-0.455000	-160.147433	-5.066637	-73.570646	0.080338	-0.180088	-0.018232	101.766442	6.169398	-0.965719	13.447731	12.132505	-25.875631	-41.777577	29.876940	6.715482	43.656948	29.732585	24.601209	4.238532	44.510438	29.561349	13.745582	-4.130396	52.001632	35.998849	0.955621	-8.545847	61.958436	43.390817
-0.445000	-160.147433	-5.066637	-73.570646	0.079985	-0.179753	-0.018402	101.817390	6.260285	-1.149401	13.466098	12.290923	-25.814910	-41.753570	29.878331	6.704649	43.652527	29.723758	24.576921	4.232077	44.558166	29.588601	13.768081	-4.123382	51.990855	36.004108	1.000034	-8.531921	61.945749	43.387622
-0.435000	-160.147433	-5.066637	-73.570646	0.079605	-0.179418	-0.018576	101.899539	6.343986	-1.322223	13.510304	12.439396	-25.724556	-41.708459	29.832020	6.697154	43.643892	29.719109	24.538000	4.224104	44.605983	29.614279	13.741442	-4.113169	51.999786	36.014838	1.030226	-8.526314	61.951480	43.389398
-0.425000	-160.147433	-5.066637	-73.570646	0.079205	-0.179104	-0.018755	102.007579	6.415783	-1.462804	13.572154	12.561307	-25.615071	-41.641970	29.717704	6.691328	43.625339	29.716532	24.475268	4.214817	44.622092	29.619694	13.660463	-4.102777	52.003113	36.015952	1.025426	-8.528840	61.956602	43.385819
-0.415000	-160.147433	-5.066637	-73.570646	0.078792	-0.178836	-0.018943	102.135833	6.474445	-1.552345	13.640667	12.646770	-25.505477	-41.563001	29.525768	6.684499	43.599703	29.718655	24.380661	4.205342	44.583802	29.592771	13.530038	-4.095576	51.976449	35.993830	0.969381	-8.536339	61.939433	43.365290
-0.405000	-160.147433	-5.066637	-73.570646	0.078373	-0.178632	-0.019139	102.280349	6.523553	-1.582341	13.704154	12.697247	-25.416311	-41.487978	29.265662	6.674203	43.579766	29.732697	24.255734	4.198005	44.491266	29.535065	13.367984	-4.093762	51.909986	35.943493	0.863153	-8.544615	61.887398	43.320967
-0.395000	-160.147433	-5.066637	-73.570646	0.077953	-0.178497	-0.019341	102.440251	6.570031	-1.559725	13.751207	12.726354	-25.360590	-41.434799	28.969867	6.659367	43.584816	29.767212	24.117553	4.195942	44.373366	29.464054	13.206107	-4.097412	51.816882	35.873289	0.733001	-8.551424	61.806195	43.256236
-0.385000	-160.147433	-5.066637	-73.570646	0.077541	-0.178425	-0.019550	102.620108	6.620406	-1.505361	13.771972	12.755604	-25.338226	-41.416253	28.688441	6.641394	43.633298	29.827413	23.996494	4.201853	44.281485	29.409190	13.086119	-4.104702	51.730606	35.803982	0.625879	-8.558834	61.721414	43.186903
-0.375000	-160.147433	-5.066637	-73.570646	0.077151	-0.178392	-0.019769	102.833931	6.676985	-1.444727	13.761101	12.806519	-25.337167	-41.436985	28.473587	6.624885	43.734081	29.911343	23.925223	4.216351	44.270947	29.401792	13.049285	-4.113272	51.689629	35.761034	0.591710	-8.573325	61.669750	43.137781
-0.365000	-160.147433	-5.066637	-73.570646	0.076796	-0.178362	-0.020013	103.108257	6.736622	-1.394327	13.721890	12.892620	-25.340393	-41.495462	28.360404	6.617075	43.880447	30.008963	23.924236	4.236983	44.375865	29.461433	13.122927	-4.122126	51.715969	35.763004	0.660354	-8.602957	61.682375	43.133801
-0.355000	-160.147433	-5.066637	-73.570646	0.076483	-0.178285	-0.020308	103.479538	6.793561	-1.350872	13.668996	13.014987	-25.334825	-41.589027	28.353822	6.625206	44.050719	30.105127	23.992311	4.258966	44.589004	29.584658	13.309859	-4.132962	51.800622	35.812583	0.825902	-8.652526	61.769054	43.189366
-0.345000	-160.147433	-5.066637	-73.570646	0.076204	-0.178108	-0.020690	103.982565	6.845656	-1.289684	13.626587	13.163371	-25.317715	-41.718250	28.429018	6.652529	44.216273	30.185408	24.107710	4.277449	44.859020	29.742926	13.586087	-4.149880	51.906736	35.896200	1.047425	-8.719040	61.912362	43.301365
-0.335000	-160.147433	-5.066637	-73.570646	0.075935	-0.177784	-0.021200	104.632444	6.901263	-1.174350	13.620707	13.322218	-25.297784	-41.887594	28.544278	6.695375	44.353438	30.242041	24.239544	4.289746	45.109907	29.893094	13.908083	-4.177190	51.989966	35.992791	1.265891	-8.790248	62.075425	43.449660
-0.325000	-160.147433	-5.066637	-73.570646	0.075634	-0.177274	-0.021878	105.408386	6.983534	-0.974252	13.668084	13.478678	-25.290948	-42.101895	28.657517	6.743559	44.453868	30.277350	24.362760	4.295784	45.274449	29.996391	14.226377	-4.216037	52.022861	36.085880	1.427932	-8.847750	62.218710	43.604955
-0.315000	-160.147433	-5.066637	-73.570646	0.075243	-0.176553	-0.022751	106.248459	7.129888	-0.683318	13.766429	13.628570	-25.312713	-42.360258	28.736429	6.783959	44.528809	30.303399	24.468214	4.296626	45.323510	30.035644	14.499938	-4.261454	52.006687	36.170720	1.504330	-8.873498	62.316842	43.740338
